<svg width="16" height="21" viewBox="0 0 16 21" fill="none" xmlns="http://www.w3.org/2000/svg">
<path d="M3.5216 2.09999C3.73224 1.73516 4.0352 1.43219 4.40003 1.22155C4.76487 1.0109 5.17872 0.900005 5.6 0.899994H11C12.1139 0.899994 13.1822 1.34249 13.9698 2.13015C14.7575 2.9178 15.2 3.98608 15.2 5.09999V17.1C15.1999 17.2085 15.1705 17.315 15.1147 17.4081C15.0589 17.5012 14.9789 17.5774 14.8832 17.6286C14.7875 17.6799 14.6797 17.7042 14.5713 17.699C14.4629 17.6938 14.358 17.6593 14.2676 17.5992L14 17.4216V5.09999C14 4.30434 13.6839 3.54128 13.1213 2.97867C12.5587 2.41606 11.7956 2.09999 11 2.09999H3.5216ZM3.2 3.29999C2.56348 3.29999 1.95303 3.55285 1.50294 4.00294C1.05286 4.45302 0.799999 5.06347 0.799999 5.69999V19.5C0.800055 19.6085 0.829548 19.715 0.885336 19.8081C0.941124 19.9012 1.02112 19.9774 1.1168 20.0286C1.21248 20.0799 1.32026 20.1042 1.42867 20.099C1.53708 20.0938 1.64205 20.0593 1.7324 19.9992L6.8 16.6212L11.8676 19.9992C11.958 20.0593 12.0629 20.0938 12.1713 20.099C12.2797 20.1042 12.3875 20.0799 12.4832 20.0286C12.5789 19.9774 12.6589 19.9012 12.7147 19.8081C12.7705 19.715 12.7999 19.6085 12.8 19.5V5.69999C12.8 5.06347 12.5471 4.45302 12.0971 4.00294C11.647 3.55285 11.0365 3.29999 10.4 3.29999H3.2ZM2 5.69999C2 5.38173 2.12643 5.07651 2.35147 4.85147C2.57652 4.62642 2.88174 4.49999 3.2 4.49999H10.4C10.7183 4.49999 11.0235 4.62642 11.2485 4.85147C11.4736 5.07651 11.6 5.38173 11.6 5.69999V18.3792L7.1324 15.4008C7.03393 15.3353 6.91828 15.3003 6.8 15.3003C6.68172 15.3003 6.56607 15.3353 6.4676 15.4008L2 18.3792V5.69999Z" fill="#757575"/>
</svg>
