<svg width="16" height="21" viewBox="0 0 16 21" fill="none" xmlns="http://www.w3.org/2000/svg">
<path d="M3.2 0.899994H12.8C13.4365 0.899994 14.047 1.15285 14.4971 1.60294C14.9471 2.05302 15.2 2.66347 15.2 3.29999V17.7C15.2 18.3365 14.9471 18.947 14.4971 19.3971C14.047 19.8471 13.4365 20.1 12.8 20.1H3.2C2.56348 20.1 1.95303 19.8471 1.50294 19.3971C1.05286 18.947 0.799999 18.3365 0.799999 17.7V3.29999C0.799999 2.66347 1.05286 2.05302 1.50294 1.60294C1.95303 1.15285 2.56348 0.899994 3.2 0.899994ZM3.2 2.09999C2.88174 2.09999 2.57652 2.22642 2.35147 2.45147C2.12643 2.67651 2 2.98173 2 3.29999V17.7C2 18.0183 2.12643 18.3235 2.35147 18.5485C2.57652 18.7736 2.88174 18.9 3.2 18.9H12.8C13.1183 18.9 13.4235 18.7736 13.6485 18.5485C13.8736 18.3235 14 18.0183 14 17.7V3.29999C14 2.98173 13.8736 2.67651 13.6485 2.45147C13.4235 2.22642 13.1183 2.09999 12.8 2.09999H3.2ZM11.6 6.29999C11.6 6.44042 11.5508 6.57642 11.4609 6.68431C11.371 6.79219 11.2461 6.86512 11.108 6.89039L11 6.89999H5C4.85006 6.90027 4.70546 6.8444 4.59466 6.74338C4.48386 6.64237 4.4149 6.50353 4.40135 6.35421C4.3878 6.20489 4.43065 6.0559 4.52146 5.9366C4.61227 5.81729 4.74446 5.73631 4.892 5.70959L5 5.69999H11C11.1591 5.69999 11.3117 5.76321 11.4243 5.87573C11.5368 5.98825 11.6 6.14086 11.6 6.29999ZM11.6 10.5C11.6 10.6404 11.5508 10.7764 11.4609 10.8843C11.371 10.9922 11.2461 11.0651 11.108 11.0904L11 11.1H5C4.85006 11.1003 4.70546 11.0444 4.59466 10.9434C4.48386 10.8424 4.4149 10.7035 4.40135 10.5542C4.3878 10.4049 4.43065 10.2559 4.52146 10.1366C4.61227 10.0173 4.74446 9.93631 4.892 9.90959L5 9.89999H11C11.1591 9.89999 11.3117 9.96321 11.4243 10.0757C11.5368 10.1883 11.6 10.3409 11.6 10.5ZM11.6 14.7C11.6 14.8404 11.5508 14.9764 11.4609 15.0843C11.371 15.1922 11.2461 15.2651 11.108 15.2904L11 15.3H5C4.85006 15.3003 4.70546 15.2444 4.59466 15.1434C4.48386 15.0424 4.4149 14.9035 4.40135 14.7542C4.3878 14.6049 4.43065 14.4559 4.52146 14.3366C4.61227 14.2173 4.74446 14.1363 4.892 14.1096L5 14.1H11C11.1591 14.1 11.3117 14.1632 11.4243 14.2757C11.5368 14.3883 11.6 14.5409 11.6 14.7Z" fill="#757575"/>
</svg>
