<svg width="20" height="21" viewBox="0 0 20 21" fill="none" xmlns="http://www.w3.org/2000/svg">
<path d="M5.72 15.456L7.481 14.948L18.084 4.21803C18.1676 4.13233 18.2142 4.01716 18.2136 3.89741C18.2131 3.77767 18.1654 3.66295 18.081 3.57803L17.446 2.93603C17.405 2.89387 17.3559 2.8603 17.3018 2.83729C17.2477 2.81427 17.1895 2.80228 17.1306 2.802C17.0718 2.80172 17.0135 2.81316 16.9591 2.83566C16.9048 2.85816 16.8554 2.89126 16.814 2.93303L6.239 13.635L5.719 15.455L5.72 15.456ZM18.703 1.66403L19.338 2.30703C20.214 3.19403 20.222 4.62503 19.354 5.50303L8.428 16.561L4.664 17.645C4.4342 17.7094 4.18826 17.6799 3.98016 17.5631C3.77206 17.4463 3.6188 17.2517 3.554 17.022C3.50578 16.8569 3.50509 16.6815 3.552 16.516L4.647 12.676L15.544 1.64703C15.7512 1.43839 15.9979 1.27309 16.2696 1.16078C16.5414 1.04847 16.8328 0.991398 17.1269 0.992887C17.4209 0.994377 17.7117 1.0544 17.9823 1.16946C18.2529 1.28451 18.4979 1.4523 18.703 1.66303V1.66403ZM7.184 2.81703C7.68 2.81703 8.082 3.22403 8.082 3.72603C8.08279 3.8447 8.06018 3.96236 8.01547 4.07228C7.97076 4.18221 7.90481 4.28224 7.82141 4.36666C7.73801 4.45108 7.63879 4.51824 7.52942 4.56429C7.42004 4.61034 7.30267 4.63438 7.184 4.63503H3.592C2.6 4.63503 1.796 5.44903 1.796 6.45203V17.358C1.796 18.362 2.6 19.176 3.592 19.176H14.368C15.36 19.176 16.165 18.362 16.165 17.358V13.723C16.165 13.221 16.567 12.814 17.063 12.814C17.559 12.814 17.961 13.221 17.961 13.724V17.358C17.961 19.366 16.352 20.994 14.368 20.994H3.592C1.608 20.994 0 19.366 0 17.358V6.45203C0 4.44503 1.608 2.81703 3.592 2.81703H7.184Z" fill="#757575"/>
</svg>
