<svg width="20" height="21" viewBox="0 0 20 21" fill="none" xmlns="http://www.w3.org/2000/svg">
<path d="M19.1064 14.8392L17.0594 11.0599V7.125C17.0594 3.19627 13.8631 0 9.93438 0C6.00564 0 2.80938 3.19627 2.80938 7.125V11.0599L0.76225 14.8391C0.669415 15.0105 0.622691 15.203 0.626656 15.3979C0.630621 15.5927 0.685139 15.7832 0.784869 15.9507C0.884598 16.1181 1.02612 16.2568 1.19556 16.3531C1.365 16.4494 1.55656 16.5 1.75145 16.5H5.82653C5.81517 16.6247 5.80942 16.7498 5.80933 16.875C5.80933 17.969 6.24393 19.0182 7.01751 19.7918C7.7911 20.5654 8.84031 21 9.93433 21C11.0283 21 12.0776 20.5654 12.8511 19.7918C13.6247 19.0182 14.0593 17.969 14.0593 16.875C14.0593 16.7484 14.0533 16.6236 14.0421 16.5H18.1172C18.3121 16.5 18.5036 16.4493 18.673 16.353C18.8424 16.2567 18.9839 16.1181 19.0837 15.9506C19.1834 15.7832 19.2379 15.5927 19.2418 15.3979C19.2458 15.2031 19.1991 15.0105 19.1063 14.8392H19.1064ZM12.5594 16.875C12.5597 17.2357 12.4856 17.5927 12.3418 17.9235C12.198 18.2543 11.9876 18.552 11.7236 18.7979C11.4597 19.0438 11.1479 19.2326 10.8077 19.3526C10.4675 19.4726 10.1062 19.5212 9.74638 19.4954C9.38657 19.4696 9.03594 19.3698 8.71639 19.2025C8.39683 19.0351 8.1152 18.8036 7.88908 18.5226C7.66296 18.2415 7.4972 17.9168 7.40215 17.5688C7.30709 17.2208 7.28478 16.857 7.33661 16.5H12.5321C12.5501 16.6242 12.5592 16.7495 12.5594 16.875ZM2.38103 15L4.30938 11.4401V7.125C4.30938 5.63316 4.90201 4.20242 5.9569 3.14752C7.01179 2.09263 8.44253 1.5 9.93438 1.5C11.4262 1.5 12.857 2.09263 13.9118 3.14752C14.9667 4.20242 15.5594 5.63316 15.5594 7.125V11.4401L17.4876 15H2.38103Z" fill="#757575"/>
</svg>
